<?xml version="1.0" encoding="us-ascii" standalone="no"?><svg xmlns="http://www.w3.org/2000/svg" xmlns:xlink="http://www.w3.org/1999/xlink" contentStyleType="text/css" height="696px" preserveAspectRatio="none" style="width:506px;height:696px;background:#FFFFFF;" version="1.1" viewBox="0 0 506 696" width="506px" zoomAndPan="magnify"><defs/><g><text fill="#000000" font-family="sans-serif" font-size="14" font-weight="bold" lengthAdjust="spacing" textLength="203" x="144.5" y="22.9951">Overview Of Components</text><!--cluster sm--><g id="cluster_sm"><rect fill="none" height="313" rx="2.5" ry="2.5" style="stroke:#181818;stroke-width:1.0;" width="187" x="95.5" y="377.2969"/><line style="stroke:#181818;stroke-width:1.0;" x1="95.5" x2="282.5" y1="397.5938" y2="397.5938"/><text fill="#000000" font-family="sans-serif" font-size="14" font-weight="bold" lengthAdjust="spacing" textLength="117" x="130.5" y="392.292">State Machine</text></g><!--entity idle--><g id="elem_idle"><rect fill="#F1F1F1" height="36.2969" rx="2.5" ry="2.5" style="stroke:#181818;stroke-width:0.5;" width="86" x="145.5" y="420.2969"/><text fill="#000000" font-family="sans-serif" font-size="14" lengthAdjust="spacing" textLength="66" x="155.5" y="443.292">IdleState</text></g><!--entity work--><g id="elem_work"><rect fill="#F1F1F1" height="36.2969" rx="2.5" ry="2.5" style="stroke:#181818;stroke-width:0.5;" width="98" x="136.5" y="630.2969"/><text fill="#000000" font-family="sans-serif" font-size="14" lengthAdjust="spacing" textLength="78" x="146.5" y="653.292">WorkState</text></g><!--entity rest--><g id="elem_rest"><rect fill="#F1F1F1" height="36.2969" rx="2.5" ry="2.5" style="stroke:#181818;stroke-width:0.5;" width="93" x="165" y="533.2969"/><text fill="#000000" font-family="sans-serif" font-size="14" lengthAdjust="spacing" textLength="73" x="175" y="556.292">RestState</text></g><!--entity context--><g id="elem_context"><rect fill="#F1F1F1" height="36.2969" rx="2.5" ry="2.5" style="stroke:#181818;stroke-width:0.5;" width="79" x="190" y="270.2969"/><text fill="#000000" font-family="sans-serif" font-size="14" lengthAdjust="spacing" textLength="59" x="200" y="293.292">Context</text></g><!--entity detector--><g id="elem_detector"><rect fill="#F1F1F1" height="36.2969" rx="2.5" ry="2.5" style="stroke:#181818;stroke-width:0.5;" width="124" x="167.5" y="157.2969"/><text fill="#000000" font-family="sans-serif" font-size="14" lengthAdjust="spacing" textLength="104" x="177.5" y="180.292">WorkDetector</text></g><!--entity _collect_data--><g id="elem__collect_data"><rect fill="#F1F1F1" height="36.2969" rx="2.5" ry="2.5" style="stroke:#181818;stroke-width:0.5;" width="125" x="7" y="157.2969"/><text fill="#000000" font-family="sans-serif" font-size="14" lengthAdjust="spacing" textLength="105" x="17" y="180.292">SensorMonitor</text></g><!--entity db--><g id="elem_db"><rect fill="#F1F1F1" height="32.2969" rx="2.5" ry="2.5" style="stroke:#181818;stroke-width:0.5;" width="121" x="22" y="274.2969"/><rect fill="#F1F1F1" height="32.2969" rx="2.5" ry="2.5" style="stroke:#181818;stroke-width:0.5;" width="121" x="18" y="270.2969"/><text fill="#000000" font-family="sans-serif" font-size="14" lengthAdjust="spacing" textLength="105" x="26" y="291.292">Measurements</text></g><!--entity strategies--><g id="elem_strategies"><rect fill="#F1F1F1" height="32.2969" rx="2.5" ry="2.5" style="stroke:#181818;stroke-width:0.5;" width="181" x="319" y="537.2969"/><rect fill="#F1F1F1" height="32.2969" rx="2.5" ry="2.5" style="stroke:#181818;stroke-width:0.5;" width="181" x="315" y="533.2969"/><text fill="#000000" font-family="sans-serif" font-size="14" lengthAdjust="spacing" textLength="165" x="323" y="554.292">Light Effect Strategies</text></g><!--entity light--><g id="elem_light"><rect fill="#F1F1F1" height="36.2969" rx="2.5" ry="2.5" style="stroke:#181818;stroke-width:0.5;" width="134" x="340.5" y="420.2969"/><text fill="#000000" font-family="sans-serif" font-size="14" lengthAdjust="spacing" textLength="114" x="350.5" y="443.292">Light Controller</text></g><!--entity ds--><g id="elem_ds"><rect fill="#F1F1F1" height="32.2969" rx="2.5" ry="2.5" style="stroke:#181818;stroke-width:0.5;" width="164" x="149.5" y="48.2969"/><rect fill="#F1F1F1" height="32.2969" rx="2.5" ry="2.5" style="stroke:#181818;stroke-width:0.5;" width="164" x="145.5" y="44.2969"/><text fill="#000000" font-family="sans-serif" font-size="14" lengthAdjust="spacing" textLength="148" x="153.5" y="65.292">DetectionStrategies</text></g><!--link idle to work--><g id="link_idle_work"><path d="M177.02,456.3019 C161.818,480.9079 137.98,528.0199 147.5,569.2969 C152.646,591.6069 161.9665,609.7913 171.2185,625.0526 " fill="none" id="idle-to-work" style="stroke:#181818;stroke-width:1.0;"/><polygon fill="#181818" points="174.329,630.1834,173.0838,620.4136,171.7369,625.9077,166.2428,624.5609,174.329,630.1834" style="stroke:#181818;stroke-width:1.0;"/></g><!--link rest to work--><g id="link_rest_work"><path d="M205.1473,575.5081 C200.4563,592.6501 196.5026,607.0926 191.8226,624.1956 " fill="none" id="rest-work" style="stroke:#181818;stroke-width:1.0;"/><polygon fill="#181818" points="206.731,569.7209,200.4973,577.3459,205.4112,574.5436,208.2136,579.4575,206.731,569.7209" style="stroke:#181818;stroke-width:1.0;"/><polygon fill="#181818" points="190.239,629.9829,196.4726,622.3577,191.5587,625.1602,188.7562,620.2463,190.239,629.9829" style="stroke:#181818;stroke-width:1.0;"/></g><!--reverse link idle to rest--><g id="link_idle_rest"><path d="M193.3114,462.5161 C197.6324,483.3691 203.622,512.2759 207.931,533.0749 " fill="none" id="idle-backto-rest" style="stroke:#181818;stroke-width:1.0;"/><polygon fill="#181818" points="192.094,456.6409,190.0033,466.2653,193.1085,461.5369,197.8369,464.6421,192.094,456.6409" style="stroke:#181818;stroke-width:1.0;"/></g><!--link context to light--><g id="link_context_light"><path d="M269.118,296.4759 C295.822,303.0239 330.435,315.0369 354.5,336.2969 C380.471,359.2409 393.8916,392.2935 400.9296,414.5315 " fill="none" id="context-to-light" style="stroke:#181818;stroke-width:1.0;"/><polygon fill="#181818" points="402.74,420.2519,403.838,410.4644,401.2313,415.4849,396.2108,412.8783,402.74,420.2519" style="stroke:#181818;stroke-width:1.0;"/><text fill="#000000" font-family="sans-serif" font-size="13" lengthAdjust="spacing" textLength="51" x="370.5" y="349.3638">controls</text></g><!--link light to strategies--><g id="link_light_strategies"><path d="M407.5,456.6409 C407.5,477.4939 407.5,506.2759 407.5,527.0749 " fill="none" id="light-to-strategies" style="stroke:#181818;stroke-width:1.0;"/><polygon fill="#181818" points="407.5,533.0749,411.5,524.0749,407.5,528.0749,403.5,524.0749,407.5,533.0749" style="stroke:#181818;stroke-width:1.0;"/><text fill="#000000" font-family="sans-serif" font-size="13" lengthAdjust="spacing" textLength="30" x="408.5" y="499.3638">uses</text></g><!--link context to sm--><g id="link_context_sm"><path d="M189.978,300.4239 C151.947,311.5269 99.3525,328.0819 93.5,336.2969 C80.6176,354.3789 82.8388,379.1286 88.4167,399.6021 C89.8112,404.7205 91.4155,409.5716 93.046,413.9845 C93.8613,416.1909 92.4084,412.7357 93.2138,414.7016 " fill="none" id="context-to-sm" style="stroke:#181818;stroke-width:1.0;"/><polygon fill="#181818" points="95.4886,420.2536,95.7778,410.409,93.5929,415.6269,88.3751,413.442,95.4886,420.2536" style="stroke:#181818;stroke-width:1.0;"/><text fill="#000000" font-family="sans-serif" font-size="13" lengthAdjust="spacing" textLength="91" x="94.5" y="349.3638">changes state</text></g><!--reverse link context to sm--><g id="link_context_sm"><path d="M221.8939,311.9023 C216.1079,326.9523 207.564,342.5459 190.5,353.2969 C175.571,362.7029 124.002,348.8449 111.5,361.2969 C108.586,364.1994 106.2604,367.5134 104.4235,371.0966 C103.5051,372.8882 102.7088,374.7472 102.0222,376.6557 C101.9792,376.7749 101.9368,376.8944 101.8947,377.0141 " fill="none" id="context-backto-sm" style="stroke:#181818;stroke-width:1.0;"/><polygon fill="#181818" points="224.047,306.3019,217.0838,313.2671,222.2528,310.9689,224.551,316.1378,224.047,306.3019" style="stroke:#181818;stroke-width:1.0;"/><text fill="#000000" font-family="sans-serif" font-size="13" lengthAdjust="spacing" textLength="136" x="209.5" y="349.3638">requests light effects</text></g><!--link _collect_data to db--><g id="link__collect_data_db"><path d="M67.4251,193.4899 C66.2363,206.4209 65.3617,224.5449 67.5,240.2969 C68.8666,250.3639 70.0246,255.5912 72.7647,264.3912 " fill="none" id="_collect_data-to-db" style="stroke:#181818;stroke-width:1.0;"/><polygon fill="#181818" points="74.5485,270.1199,75.692,260.3376,73.062,265.3459,68.0537,262.716,74.5485,270.1199" style="stroke:#181818;stroke-width:1.0;"/><text fill="#000000" font-family="sans-serif" font-size="13" lengthAdjust="spacing" textLength="39" x="68.5" y="236.3638">writes</text></g><!--reverse link detector to db--><g id="link_detector_db"><path d="M201.7335,196.9815 C173.8155,217.7805 131.767,249.1049 103.7263,269.9939 " fill="none" id="detector-backto-db" style="stroke:#181818;stroke-width:1.0;"/><polygon fill="#181818" points="206.545,193.3969,196.938,195.5661,202.5354,196.384,201.7175,201.9814,206.545,193.3969" style="stroke:#181818;stroke-width:1.0;"/><text fill="#000000" font-family="sans-serif" font-size="13" lengthAdjust="spacing" textLength="36" x="165.5" y="236.3638">reads</text></g><!--link detector to context--><g id="link_detector_context"><path d="M229.5,193.6409 C229.5,214.4939 229.5,243.2759 229.5,264.0749 " fill="none" id="detector-to-context" style="stroke:#181818;stroke-width:1.0;"/><polygon fill="#181818" points="229.5,270.0749,233.5,261.0749,229.5,265.0749,225.5,261.0749,229.5,270.0749" style="stroke:#181818;stroke-width:1.0;"/><text fill="#000000" font-family="sans-serif" font-size="13" lengthAdjust="spacing" textLength="172" x="230.5" y="236.3638">updates( IDLE / WORKING )</text></g><!--reverse link ds to detector--><g id="link_ds_detector"><path d="M229.5,86.6409 C229.5,107.4939 229.5,136.2759 229.5,157.0749 " fill="none" id="ds-backto-detector" style="stroke:#181818;stroke-width:1.0;"/><polygon fill="#181818" points="229.5,80.6409,225.5,89.6409,229.5,85.6409,233.5,89.6409,229.5,80.6409" style="stroke:#181818;stroke-width:1.0;"/><text fill="#000000" font-family="sans-serif" font-size="13" lengthAdjust="spacing" textLength="30" x="230.5" y="123.3638">uses</text></g><!--SRC=[LL4zRm8n3DtpAoocTa3TgweBe0e1HU86HXJkp17rI6ZYWqfL_tlj9Dn7fjZl-Tb-9aCDmlQ6_cRm3jiJpDpbwYnQ2agLsbSmAKWJmaQNPsDn0Zf0kC2l0dwwPY8igmOJYJ73mG3RE__LONSE1jWE0tMOvo1Y8W3JwNlF5WZUHgb8ubGg-rD9SEOiuG-9N9c-gfzYZeGbEIzebVyPBj06vpVEcemVIjSqp3XKchJAWN4sm0PrQ3rUnA2eT1p1axMfpmIBquapK93dxMg38TdMXRblPilONaHyf3MI7AccqVdR2yRUSgAyihWJ2-4rxivwGQM4G7rhnjl04mmB-PvSTTQsHfcIcMhaG2HLHoRTlI4kVlWNJn01ZxeQvAKWT-1-LnR1y0JB-Ne1Bx3VxbRBpmzuxeOGcJY4n- -MBvfD08m-icv8dHxoQOT_]--></g></svg>