<?xml version="1.0" encoding="UTF-8" standalone="no"?><svg xmlns="http://www.w3.org/2000/svg" xmlns:xlink="http://www.w3.org/1999/xlink" contentScriptType="application/ecmascript" contentStyleType="text/css" height="217px" preserveAspectRatio="none" style="width:884px;height:217px;background:#FFFFFF;" version="1.1" viewBox="0 0 884 217" width="884px" zoomAndPan="magnify"><defs/><g><rect fill="#FEFECE" height="60.8906" rx="5" ry="5" style="stroke:#FEFECE;stroke-width:1.5;" width="139" x="10" y="96.5"/><text fill="#000000" font-family="sans-serif" font-size="14" lengthAdjust="spacing" textLength="33" x="15" y="111.4951">light</text><text fill="#000000" font-family="sans-serif" font-size="14" lengthAdjust="spacing" textLength="0" x="144" y="111.4951"/><line style="stroke:#A80036;stroke-width:1.0;" x1="127" x2="127" y1="96.5" y2="116.7969"/><line style="stroke:#A80036;stroke-width:1.0;" x1="10" x2="149" y1="116.7969" y2="116.7969"/><text fill="#000000" font-family="sans-serif" font-size="14" lengthAdjust="spacing" textLength="60" x="15" y="131.792">duration</text><text fill="#000000" font-family="sans-serif" font-size="14" lengthAdjust="spacing" textLength="0" x="144" y="131.792"/><line style="stroke:#A80036;stroke-width:1.0;" x1="127" x2="127" y1="116.7969" y2="137.0938"/><line style="stroke:#A80036;stroke-width:1.0;" x1="10" x2="149" y1="137.0938" y2="137.0938"/><text fill="#000000" font-family="sans-serif" font-size="14" lengthAdjust="spacing" textLength="107" x="15" y="152.0889">measurements</text><text fill="#000000" font-family="sans-serif" font-size="14" lengthAdjust="spacing" textLength="0" x="144" y="152.0889"/><line style="stroke:#A80036;stroke-width:1.0;" x1="127" x2="127" y1="137.0938" y2="157.3906"/><rect fill="none" height="60.8906" rx="5" ry="5" style="stroke:#A80036;stroke-width:1.5;" width="139" x="10" y="96.5"/><rect fill="#FEFECE" height="60.8906" rx="5" ry="5" style="stroke:#FEFECE;stroke-width:1.5;" width="188" x="244.5" y="26.5"/><text fill="#000000" font-family="sans-serif" font-size="14" lengthAdjust="spacing" textLength="145" x="249.5" y="41.4951">effect configuration</text><text fill="#000000" font-family="sans-serif" font-size="14" lengthAdjust="spacing" textLength="0" x="416.5" y="41.4951"/><line style="stroke:#A80036;stroke-width:1.0;" x1="399.5" x2="399.5" y1="26.5" y2="46.7969"/><line style="stroke:#A80036;stroke-width:1.0;" x1="244.5" x2="432.5" y1="46.7969" y2="46.7969"/><text fill="#000000" font-family="sans-serif" font-size="14" lengthAdjust="spacing" textLength="94" x="249.5" y="61.792">state effects</text><text fill="#000000" font-family="sans-serif" font-size="14" lengthAdjust="spacing" textLength="0" x="416.5" y="61.792"/><line style="stroke:#A80036;stroke-width:1.0;" x1="399.5" x2="399.5" y1="46.7969" y2="67.0938"/><line style="stroke:#A80036;stroke-width:1.0;" x1="244.5" x2="432.5" y1="67.0938" y2="67.0938"/><text fill="#000000" font-family="sans-serif" font-size="14" lengthAdjust="spacing" textLength="135" x="249.5" y="82.0889">general brightness</text><text fill="#000000" font-family="sans-serif" font-size="14" lengthAdjust="spacing" textLength="23" x="404.5" y="82.0889">1.0</text><line style="stroke:#A80036;stroke-width:1.0;" x1="399.5" x2="399.5" y1="67.0938" y2="87.3906"/><rect fill="none" height="60.8906" rx="5" ry="5" style="stroke:#A80036;stroke-width:1.5;" width="188" x="244.5" y="26.5"/><rect fill="#FEFECE" height="15" rx="5" ry="5" style="stroke:#FEFECE;stroke-width:1.5;" width="30" x="615.5" y="10"/><rect fill="none" height="15" rx="5" ry="5" style="stroke:#A80036;stroke-width:1.5;" width="30" x="615.5" y="10"/><rect fill="#FEFECE" height="60.8906" rx="5" ry="5" style="stroke:#FEFECE;stroke-width:1.5;" width="199" x="528" y="44.5"/><text fill="#000000" font-family="sans-serif" font-size="14" lengthAdjust="spacing" textLength="84" x="533" y="59.4951">work effect</text><text fill="#000000" font-family="sans-serif" font-size="14" lengthAdjust="spacing" textLength="95" x="627" y="59.4951">blinking light</text><line style="stroke:#A80036;stroke-width:1.0;" x1="622" x2="622" y1="44.5" y2="64.7969"/><line style="stroke:#A80036;stroke-width:1.0;" x1="528" x2="727" y1="64.7969" y2="64.7969"/><text fill="#000000" font-family="sans-serif" font-size="14" lengthAdjust="spacing" textLength="78" x="533" y="79.792">rest effect</text><text fill="#000000" font-family="sans-serif" font-size="14" lengthAdjust="spacing" textLength="70" x="627" y="79.792">solid light</text><line style="stroke:#A80036;stroke-width:1.0;" x1="622" x2="622" y1="64.7969" y2="85.0938"/><line style="stroke:#A80036;stroke-width:1.0;" x1="528" x2="727" y1="85.0938" y2="85.0938"/><text fill="#000000" font-family="sans-serif" font-size="14" lengthAdjust="spacing" textLength="75" x="533" y="100.0889">idle effect</text><text fill="#000000" font-family="sans-serif" font-size="14" lengthAdjust="spacing" textLength="0" x="631" y="100.0889"/><line style="stroke:#A80036;stroke-width:1.0;" x1="622" x2="622" y1="85.0938" y2="105.3906"/><rect fill="none" height="60.8906" rx="5" ry="5" style="stroke:#A80036;stroke-width:1.5;" width="199" x="528" y="44.5"/><rect fill="#FEFECE" height="40.5938" rx="5" ry="5" style="stroke:#FEFECE;stroke-width:1.5;" width="72" x="302.5" y="105.5"/><text fill="#000000" font-family="sans-serif" font-size="14" lengthAdjust="spacing" textLength="35" x="307.5" y="120.4951">work</text><text fill="#000000" font-family="sans-serif" font-size="14" lengthAdjust="spacing" textLength="17" x="352.5" y="120.4951">25</text><line style="stroke:#A80036;stroke-width:1.0;" x1="347.5" x2="347.5" y1="105.5" y2="125.7969"/><line style="stroke:#A80036;stroke-width:1.0;" x1="302.5" x2="374.5" y1="125.7969" y2="125.7969"/><text fill="#000000" font-family="sans-serif" font-size="14" lengthAdjust="spacing" textLength="29" x="307.5" y="140.792">rest</text><text fill="#000000" font-family="sans-serif" font-size="14" lengthAdjust="spacing" textLength="9" x="352.5" y="140.792">5</text><line style="stroke:#A80036;stroke-width:1.0;" x1="347.5" x2="347.5" y1="125.7969" y2="146.0938"/><rect fill="none" height="40.5938" rx="5" ry="5" style="stroke:#A80036;stroke-width:1.5;" width="72" x="302.5" y="105.5"/><rect fill="#FEFECE" height="40.5938" rx="5" ry="5" style="stroke:#FEFECE;stroke-width:1.5;" width="305" x="186" y="164.5"/><text fill="#000000" font-family="sans-serif" font-size="14" lengthAdjust="spacing" textLength="116" x="191" y="179.4951">default strategy</text><text fill="#000000" font-family="sans-serif" font-size="14" lengthAdjust="spacing" textLength="124" x="362" y="179.4951">distanceStrategy</text><line style="stroke:#A80036;stroke-width:1.0;" x1="357" x2="357" y1="164.5" y2="184.7969"/><line style="stroke:#A80036;stroke-width:1.0;" x1="186" x2="491" y1="184.7969" y2="184.7969"/><text fill="#000000" font-family="sans-serif" font-size="14" lengthAdjust="spacing" textLength="161" x="191" y="199.792">strategy configuration</text><text fill="#000000" font-family="sans-serif" font-size="14" lengthAdjust="spacing" textLength="0" x="374" y="199.792"/><line style="stroke:#A80036;stroke-width:1.0;" x1="357" x2="357" y1="184.7969" y2="205.0938"/><rect fill="none" height="40.5938" rx="5" ry="5" style="stroke:#A80036;stroke-width:1.5;" width="305" x="186" y="164.5"/><rect fill="#FEFECE" height="20.2969" rx="5" ry="5" style="stroke:#FEFECE;stroke-width:1.5;" width="156" x="549.5" y="185"/><text fill="#000000" font-family="sans-serif" font-size="14" lengthAdjust="spacing" textLength="124" x="554.5" y="199.9951">distanceStrategy</text><text fill="#000000" font-family="sans-serif" font-size="14" lengthAdjust="spacing" textLength="0" x="700.5" y="199.9951"/><line style="stroke:#A80036;stroke-width:1.0;" x1="683.5" x2="683.5" y1="185" y2="205.2969"/><rect fill="none" height="20.2969" rx="5" ry="5" style="stroke:#A80036;stroke-width:1.5;" width="156" x="549.5" y="185"/><rect fill="#FEFECE" height="20.2969" rx="5" ry="5" style="stroke:#FEFECE;stroke-width:1.5;" width="108" x="764" y="185"/><text fill="#000000" font-family="sans-serif" font-size="14" lengthAdjust="spacing" textLength="61" x="769" y="199.9951">distance</text><text fill="#000000" font-family="sans-serif" font-size="14" lengthAdjust="spacing" textLength="27" x="840" y="199.9951">150</text><line style="stroke:#A80036;stroke-width:1.0;" x1="835" x2="835" y1="185" y2="205.2969"/><rect fill="none" height="20.2969" rx="5" ry="5" style="stroke:#A80036;stroke-width:1.5;" width="108" x="764" y="185"/><path d="M421,36 L434,36 C498.1787,36 573.8453,26.0105 608.2663,20.9151 " fill="none" style="stroke:#A80036;stroke-width:1.0;stroke-dasharray:3.0,3.0;"/><path d="M608.7157,23.8976 L610.5031,20.5781 L607.8169,17.9327 L615.7223,19.7917 L608.7157,23.8976 " fill="#A80036" style="stroke:#A80036;stroke-width:1.0;"/><ellipse cx="421" cy="36" fill="#A80036" rx="3" ry="3" style="stroke:#A80036;stroke-width:1.0;stroke-dasharray:3.0,3.0;"/><path d="M421,56 L434,56 C462.1254,56 492.4458,58.0231 520.5341,60.7489 " fill="none" style="stroke:#A80036;stroke-width:1.0;stroke-dasharray:3.0,3.0;"/><path d="M520.2354,63.7383 L522.7761,60.9729 L520.8327,57.7596 L528.0075,61.4956 L520.2354,63.7383 " fill="#A80036" style="stroke:#A80036;stroke-width:1.0;"/><ellipse cx="421" cy="56" fill="#A80036" rx="3" ry="3" style="stroke:#A80036;stroke-width:1.0;stroke-dasharray:3.0,3.0;"/><path d="M137,106 L150,106 C166.6058,106 169.9568,100.2859 186,96 C202.582,91.5701 220.208,86.9586 237.3599,82.5232 " fill="none" style="stroke:#A80036;stroke-width:1.0;stroke-dasharray:3.0,3.0;"/><path d="M238.1155,85.4502 L239.5551,81.9565 L236.6042,79.5963 L244.6772,80.6342 L238.1155,85.4502 " fill="#A80036" style="stroke:#A80036;stroke-width:1.0;"/><ellipse cx="137" cy="106" fill="#A80036" rx="3" ry="3" style="stroke:#A80036;stroke-width:1.0;stroke-dasharray:3.0,3.0;"/><path d="M137,126 L150,126 C199.6685,126 256.7182,126 294.8231,126 " fill="none" style="stroke:#A80036;stroke-width:1.0;stroke-dasharray:3.0,3.0;"/><path d="M294.8231,129.1337 L297.1734,126 L294.8231,122.8663 L302.6573,126 L294.8231,129.1337 " fill="#A80036" style="stroke:#A80036;stroke-width:1.0;"/><ellipse cx="137" cy="126" fill="#A80036" rx="3" ry="3" style="stroke:#A80036;stroke-width:1.0;stroke-dasharray:3.0,3.0;"/><path d="M694,195 L707,195 C723.0741,195 740.4635,195 756.5852,195 " fill="none" style="stroke:#A80036;stroke-width:1.0;stroke-dasharray:3.0,3.0;"/><path d="M756.5852,198.1205 L758.9256,195 L756.5852,191.8795 L764.3864,195 L756.5852,198.1205 " fill="#A80036" style="stroke:#A80036;stroke-width:1.0;"/><ellipse cx="694" cy="195" fill="#A80036" rx="3" ry="3" style="stroke:#A80036;stroke-width:1.0;stroke-dasharray:3.0,3.0;"/><path d="M479,195 L492,195 C508.2598,195 525.6211,195 542.2929,195 " fill="none" style="stroke:#A80036;stroke-width:1.0;stroke-dasharray:3.0,3.0;"/><path d="M542.2929,198.042 L544.5744,195 L542.2929,191.958 L549.8979,195 L542.2929,198.042 " fill="#A80036" style="stroke:#A80036;stroke-width:1.0;"/><ellipse cx="479" cy="195" fill="#A80036" rx="3" ry="3" style="stroke:#A80036;stroke-width:1.0;stroke-dasharray:3.0,3.0;"/><path d="M137,147 L150,147 C166.3903,147 169.9588,151.6351 186,155 C198.4334,157.6081 211.4529,160.275 224.4189,162.8902 " fill="none" style="stroke:#A80036;stroke-width:1.0;stroke-dasharray:3.0,3.0;"/><path d="M223.8057,165.9394 L226.7058,163.3501 L225.032,159.8409 L232.042,164.4231 L223.8057,165.9394 " fill="#A80036" style="stroke:#A80036;stroke-width:1.0;"/><ellipse cx="137" cy="147" fill="#A80036" rx="3" ry="3" style="stroke:#A80036;stroke-width:1.0;stroke-dasharray:3.0,3.0;"/><!--MD5=[49551648082c6ba38e4ba90e9232c1bc]
@startjson
{
   "light":{
     "effect configuration":{},
     "state effects": {
       "work effect": "blinking light",
       "rest effect": "solid light",
       "idle effect": ""
     },
     "general brightness": "1.0"
   },
   "duration": {
     "work" : "25",
     "rest" : "5"
   },
   "measurements": {
     "default strategy" : "distanceStrategy",
     "strategy configuration": {
       "distanceStrategy" : {
         "distance" : 150
       }
     }
   }
}
@endjson

PlantUML version 1.2021.7(Sun May 23 12:40:07 UTC 2021)
(GPL source distribution)
Java Runtime: Java(TM) SE Runtime Environment
JVM: Java HotSpot(TM) 64-Bit Server VM
Default Encoding: UTF-8
Language: en
Country: US
--></g></svg>