<?xml version="1.0" encoding="UTF-8" standalone="no"?><svg xmlns="http://www.w3.org/2000/svg" xmlns:xlink="http://www.w3.org/1999/xlink" contentScriptType="application/ecmascript" contentStyleType="text/css" height="363px" preserveAspectRatio="none" style="width:995px;height:363px;background:#FFFFFF;" version="1.1" viewBox="0 0 995 363" width="995px" zoomAndPan="magnify"><defs/><g><rect fill="#FEFECE" height="60.8906" rx="5" ry="5" style="stroke:#FEFECE;stroke-width:1.5;" width="139" x="10" y="233"/><text fill="#000000" font-family="sans-serif" font-size="14" lengthAdjust="spacing" textLength="33" x="15" y="247.9951">light</text><text fill="#000000" font-family="sans-serif" font-size="14" lengthAdjust="spacing" textLength="0" x="144" y="247.9951"/><line style="stroke:#A80036;stroke-width:1.0;" x1="127" x2="127" y1="233" y2="253.2969"/><line style="stroke:#A80036;stroke-width:1.0;" x1="10" x2="149" y1="253.2969" y2="253.2969"/><text fill="#000000" font-family="sans-serif" font-size="14" lengthAdjust="spacing" textLength="60" x="15" y="268.292">duration</text><text fill="#000000" font-family="sans-serif" font-size="14" lengthAdjust="spacing" textLength="0" x="144" y="268.292"/><line style="stroke:#A80036;stroke-width:1.0;" x1="127" x2="127" y1="253.2969" y2="273.5938"/><line style="stroke:#A80036;stroke-width:1.0;" x1="10" x2="149" y1="273.5938" y2="273.5938"/><text fill="#000000" font-family="sans-serif" font-size="14" lengthAdjust="spacing" textLength="107" x="15" y="288.5889">measurements</text><text fill="#000000" font-family="sans-serif" font-size="14" lengthAdjust="spacing" textLength="0" x="144" y="288.5889"/><line style="stroke:#A80036;stroke-width:1.0;" x1="127" x2="127" y1="273.5938" y2="293.8906"/><rect fill="none" height="60.8906" rx="5" ry="5" style="stroke:#A80036;stroke-width:1.5;" width="139" x="10" y="233"/><rect fill="#FEFECE" height="60.8906" rx="5" ry="5" style="stroke:#FEFECE;stroke-width:1.5;" width="188" x="244.5" y="163"/><text fill="#000000" font-family="sans-serif" font-size="14" lengthAdjust="spacing" textLength="145" x="249.5" y="177.9951">effect configuration</text><text fill="#000000" font-family="sans-serif" font-size="14" lengthAdjust="spacing" textLength="0" x="416.5" y="177.9951"/><line style="stroke:#A80036;stroke-width:1.0;" x1="399.5" x2="399.5" y1="163" y2="183.2969"/><line style="stroke:#A80036;stroke-width:1.0;" x1="244.5" x2="432.5" y1="183.2969" y2="183.2969"/><text fill="#000000" font-family="sans-serif" font-size="14" lengthAdjust="spacing" textLength="94" x="249.5" y="198.292">state effects</text><text fill="#000000" font-family="sans-serif" font-size="14" lengthAdjust="spacing" textLength="0" x="416.5" y="198.292"/><line style="stroke:#A80036;stroke-width:1.0;" x1="399.5" x2="399.5" y1="183.2969" y2="203.5938"/><line style="stroke:#A80036;stroke-width:1.0;" x1="244.5" x2="432.5" y1="203.5938" y2="203.5938"/><text fill="#000000" font-family="sans-serif" font-size="14" lengthAdjust="spacing" textLength="135" x="249.5" y="218.5889">general brightness</text><text fill="#000000" font-family="sans-serif" font-size="14" lengthAdjust="spacing" textLength="23" x="404.5" y="218.5889">1.0</text><line style="stroke:#A80036;stroke-width:1.0;" x1="399.5" x2="399.5" y1="203.5938" y2="223.8906"/><rect fill="none" height="60.8906" rx="5" ry="5" style="stroke:#A80036;stroke-width:1.5;" width="188" x="244.5" y="163"/><rect fill="#FEFECE" height="40.5938" rx="5" ry="5" style="stroke:#FEFECE;stroke-width:1.5;" width="155" x="528.5" y="69"/><text fill="#000000" font-family="sans-serif" font-size="14" lengthAdjust="spacing" textLength="98" x="533.5" y="83.9951">solid red light</text><text fill="#000000" font-family="sans-serif" font-size="14" lengthAdjust="spacing" textLength="0" x="678.5" y="83.9951"/><line style="stroke:#A80036;stroke-width:1.0;" x1="661.5" x2="661.5" y1="69" y2="89.2969"/><line style="stroke:#A80036;stroke-width:1.0;" x1="528.5" x2="683.5" y1="89.2969" y2="89.2969"/><text fill="#000000" font-family="sans-serif" font-size="14" lengthAdjust="spacing" textLength="123" x="533.5" y="104.292">blinking red light</text><text fill="#000000" font-family="sans-serif" font-size="14" lengthAdjust="spacing" textLength="0" x="678.5" y="104.292"/><line style="stroke:#A80036;stroke-width:1.0;" x1="661.5" x2="661.5" y1="89.2969" y2="109.5938"/><rect fill="none" height="40.5938" rx="5" ry="5" style="stroke:#A80036;stroke-width:1.5;" width="155" x="528.5" y="69"/><rect fill="#FEFECE" height="40.5938" rx="5" ry="5" style="stroke:#FEFECE;stroke-width:1.5;" width="129" x="787.5" y="10"/><text fill="#000000" font-family="sans-serif" font-size="14" lengthAdjust="spacing" textLength="36" x="792.5" y="24.9951">color</text><text fill="#000000" font-family="sans-serif" font-size="14" lengthAdjust="spacing" textLength="24" x="879.5" y="24.9951">red</text><line style="stroke:#A80036;stroke-width:1.0;" x1="874.5" x2="874.5" y1="10" y2="30.2969"/><line style="stroke:#A80036;stroke-width:1.0;" x1="787.5" x2="916.5" y1="30.2969" y2="30.2969"/><text fill="#000000" font-family="sans-serif" font-size="14" lengthAdjust="spacing" textLength="77" x="792.5" y="45.292">brightness</text><text fill="#000000" font-family="sans-serif" font-size="14" lengthAdjust="spacing" textLength="32" x="879.5" y="45.292">0.05</text><line style="stroke:#A80036;stroke-width:1.0;" x1="874.5" x2="874.5" y1="30.2969" y2="50.5938"/><rect fill="none" height="40.5938" rx="5" ry="5" style="stroke:#A80036;stroke-width:1.5;" width="129" x="787.5" y="10"/><rect fill="#FEFECE" height="60.8906" rx="5" ry="5" style="stroke:#FEFECE;stroke-width:1.5;" width="158" x="773" y="69"/><text fill="#000000" font-family="sans-serif" font-size="14" lengthAdjust="spacing" textLength="36" x="778" y="83.9951">color</text><text fill="#000000" font-family="sans-serif" font-size="14" lengthAdjust="spacing" textLength="24" x="894" y="83.9951">red</text><line style="stroke:#A80036;stroke-width:1.0;" x1="889" x2="889" y1="69" y2="89.2969"/><line style="stroke:#A80036;stroke-width:1.0;" x1="773" x2="931" y1="89.2969" y2="89.2969"/><text fill="#000000" font-family="sans-serif" font-size="14" lengthAdjust="spacing" textLength="77" x="778" y="104.292">brightness</text><text fill="#000000" font-family="sans-serif" font-size="14" lengthAdjust="spacing" textLength="32" x="894" y="104.292">0.05</text><line style="stroke:#A80036;stroke-width:1.0;" x1="889" x2="889" y1="89.2969" y2="109.5938"/><line style="stroke:#A80036;stroke-width:1.0;" x1="773" x2="931" y1="109.5938" y2="109.5938"/><text fill="#000000" font-family="sans-serif" font-size="14" lengthAdjust="spacing" textLength="106" x="778" y="124.5889">frequency [HZ]</text><text fill="#000000" font-family="sans-serif" font-size="14" lengthAdjust="spacing" textLength="8" x="894" y="124.5889">2</text><line style="stroke:#A80036;stroke-width:1.0;" x1="889" x2="889" y1="109.5938" y2="129.8906"/><rect fill="none" height="60.8906" rx="5" ry="5" style="stroke:#A80036;stroke-width:1.5;" width="158" x="773" y="69"/><rect fill="#FEFECE" height="60.8906" rx="5" ry="5" style="stroke:#FEFECE;stroke-width:1.5;" width="116" x="548" y="188"/><text fill="#000000" font-family="sans-serif" font-size="14" lengthAdjust="spacing" textLength="84" x="553" y="202.9951">work effect</text><text fill="#000000" font-family="sans-serif" font-size="14" lengthAdjust="spacing" textLength="0" x="659" y="202.9951"/><line style="stroke:#A80036;stroke-width:1.0;" x1="642" x2="642" y1="188" y2="208.2969"/><line style="stroke:#A80036;stroke-width:1.0;" x1="548" x2="664" y1="208.2969" y2="208.2969"/><text fill="#000000" font-family="sans-serif" font-size="14" lengthAdjust="spacing" textLength="78" x="553" y="223.292">rest effect</text><text fill="#000000" font-family="sans-serif" font-size="14" lengthAdjust="spacing" textLength="0" x="659" y="223.292"/><line style="stroke:#A80036;stroke-width:1.0;" x1="642" x2="642" y1="208.2969" y2="228.5938"/><line style="stroke:#A80036;stroke-width:1.0;" x1="548" x2="664" y1="228.5938" y2="228.5938"/><text fill="#000000" font-family="sans-serif" font-size="14" lengthAdjust="spacing" textLength="75" x="553" y="243.5889">idle effect</text><text fill="#000000" font-family="sans-serif" font-size="14" lengthAdjust="spacing" textLength="0" x="659" y="243.5889"/><line style="stroke:#A80036;stroke-width:1.0;" x1="642" x2="642" y1="228.5938" y2="248.8906"/><rect fill="none" height="60.8906" rx="5" ry="5" style="stroke:#A80036;stroke-width:1.5;" width="116" x="548" y="188"/><rect fill="#FEFECE" height="60.8906" rx="5" ry="5" style="stroke:#FEFECE;stroke-width:1.5;" width="165" x="769.5" y="148"/><text fill="#000000" font-family="sans-serif" font-size="14" lengthAdjust="spacing" textLength="98" x="774.5" y="162.9951">solid red light</text><line style="stroke:#A80036;stroke-width:1.0;" x1="769.5" x2="934.5" y1="168.2969" y2="168.2969"/><text fill="#000000" font-family="sans-serif" font-size="14" lengthAdjust="spacing" textLength="123" x="774.5" y="183.292">blinking red light</text><line style="stroke:#A80036;stroke-width:1.0;" x1="769.5" x2="934.5" y1="188.5938" y2="188.5938"/><text fill="#000000" font-family="sans-serif" font-size="14" lengthAdjust="spacing" textLength="155" x="774.5" y="203.5889">fast blinking red light</text><rect fill="none" height="60.8906" rx="5" ry="5" style="stroke:#A80036;stroke-width:1.5;" width="165" x="769.5" y="148"/><rect fill="#FEFECE" height="20.2969" rx="5" ry="5" style="stroke:#FEFECE;stroke-width:1.5;" width="126" x="789" y="227.5"/><text fill="#000000" font-family="sans-serif" font-size="14" lengthAdjust="spacing" textLength="116" x="794" y="242.4951">green solid light</text><rect fill="none" height="20.2969" rx="5" ry="5" style="stroke:#A80036;stroke-width:1.5;" width="126" x="789" y="227.5"/><rect fill="#FEFECE" height="20.2969" rx="5" ry="5" style="stroke:#FEFECE;stroke-width:1.5;" width="97" x="803.5" y="265.5"/><text fill="#000000" font-family="sans-serif" font-size="14" lengthAdjust="spacing" textLength="87" x="808.5" y="280.4951">IP solid light</text><rect fill="none" height="20.2969" rx="5" ry="5" style="stroke:#A80036;stroke-width:1.5;" width="97" x="803.5" y="265.5"/><rect fill="#FEFECE" height="40.5938" rx="5" ry="5" style="stroke:#FEFECE;stroke-width:1.5;" width="72" x="302.5" y="242"/><text fill="#000000" font-family="sans-serif" font-size="14" lengthAdjust="spacing" textLength="35" x="307.5" y="256.9951">work</text><text fill="#000000" font-family="sans-serif" font-size="14" lengthAdjust="spacing" textLength="17" x="352.5" y="256.9951">25</text><line style="stroke:#A80036;stroke-width:1.0;" x1="347.5" x2="347.5" y1="242" y2="262.2969"/><line style="stroke:#A80036;stroke-width:1.0;" x1="302.5" x2="374.5" y1="262.2969" y2="262.2969"/><text fill="#000000" font-family="sans-serif" font-size="14" lengthAdjust="spacing" textLength="29" x="307.5" y="277.292">rest</text><text fill="#000000" font-family="sans-serif" font-size="14" lengthAdjust="spacing" textLength="9" x="352.5" y="277.292">5</text><line style="stroke:#A80036;stroke-width:1.0;" x1="347.5" x2="347.5" y1="262.2969" y2="282.5938"/><rect fill="none" height="40.5938" rx="5" ry="5" style="stroke:#A80036;stroke-width:1.5;" width="72" x="302.5" y="242"/><rect fill="#FEFECE" height="40.5938" rx="5" ry="5" style="stroke:#FEFECE;stroke-width:1.5;" width="305" x="186" y="301"/><text fill="#000000" font-family="sans-serif" font-size="14" lengthAdjust="spacing" textLength="116" x="191" y="315.9951">default strategy</text><text fill="#000000" font-family="sans-serif" font-size="14" lengthAdjust="spacing" textLength="124" x="362" y="315.9951">distanceStrategy</text><line style="stroke:#A80036;stroke-width:1.0;" x1="357" x2="357" y1="301" y2="321.2969"/><line style="stroke:#A80036;stroke-width:1.0;" x1="186" x2="491" y1="321.2969" y2="321.2969"/><text fill="#000000" font-family="sans-serif" font-size="14" lengthAdjust="spacing" textLength="161" x="191" y="336.292">strategy configuration</text><text fill="#000000" font-family="sans-serif" font-size="14" lengthAdjust="spacing" textLength="0" x="374" y="336.292"/><line style="stroke:#A80036;stroke-width:1.0;" x1="357" x2="357" y1="321.2969" y2="341.5938"/><rect fill="none" height="40.5938" rx="5" ry="5" style="stroke:#A80036;stroke-width:1.5;" width="305" x="186" y="301"/><rect fill="#FEFECE" height="20.2969" rx="5" ry="5" style="stroke:#FEFECE;stroke-width:1.5;" width="156" x="528" y="321.5"/><text fill="#000000" font-family="sans-serif" font-size="14" lengthAdjust="spacing" textLength="124" x="533" y="336.4951">distanceStrategy</text><text fill="#000000" font-family="sans-serif" font-size="14" lengthAdjust="spacing" textLength="0" x="679" y="336.4951"/><line style="stroke:#A80036;stroke-width:1.0;" x1="662" x2="662" y1="321.5" y2="341.7969"/><rect fill="none" height="20.2969" rx="5" ry="5" style="stroke:#A80036;stroke-width:1.5;" width="156" x="528" y="321.5"/><rect fill="#FEFECE" height="40.5938" rx="5" ry="5" style="stroke:#FEFECE;stroke-width:1.5;" width="262" x="721" y="311"/><text fill="#000000" font-family="sans-serif" font-size="14" lengthAdjust="spacing" textLength="97" x="726" y="325.9951">distance [cm]</text><text fill="#000000" font-family="sans-serif" font-size="14" lengthAdjust="spacing" textLength="27" x="951" y="325.9951">150</text><line style="stroke:#A80036;stroke-width:1.0;" x1="946" x2="946" y1="311" y2="331.2969"/><line style="stroke:#A80036;stroke-width:1.0;" x1="721" x2="983" y1="331.2969" y2="331.2969"/><text fill="#000000" font-family="sans-serif" font-size="14" lengthAdjust="spacing" textLength="215" x="726" y="346.292">observation window [seconds]</text><text fill="#000000" font-family="sans-serif" font-size="14" lengthAdjust="spacing" textLength="18" x="951" y="346.292">15</text><line style="stroke:#A80036;stroke-width:1.0;" x1="946" x2="946" y1="331.2969" y2="351.5938"/><rect fill="none" height="40.5938" rx="5" ry="5" style="stroke:#A80036;stroke-width:1.5;" width="262" x="721" y="311"/><path d="M672,78.5 L685,78.5 C703.0917,78.5 704.0185,65.74 721,59.5 C739.834,52.5792 760.8306,47.0255 780.3812,42.7047 " fill="none" style="stroke:#A80036;stroke-width:1.0;stroke-dasharray:3.0,3.0;"/><path d="M781.0196,45.6706 L782.6056,42.2259 L779.7429,39.7389 L787.7958,41.1088 L781.0196,45.6706 " fill="#A80036" style="stroke:#A80036;stroke-width:1.0;"/><ellipse cx="672" cy="78.5" fill="#A80036" rx="3" ry="3" style="stroke:#A80036;stroke-width:1.0;stroke-dasharray:3.0,3.0;"/><path d="M672,99.5 L685,99.5 C711.1777,99.5 739.6704,99.5 765.5644,99.5 " fill="none" style="stroke:#A80036;stroke-width:1.0;stroke-dasharray:3.0,3.0;"/><path d="M765.5644,102.535 L767.8407,99.5 L765.5644,96.465 L773.1519,99.5 L765.5644,102.535 " fill="#A80036" style="stroke:#A80036;stroke-width:1.0;"/><ellipse cx="672" cy="99.5" fill="#A80036" rx="3" ry="3" style="stroke:#A80036;stroke-width:1.0;stroke-dasharray:3.0,3.0;"/><path d="M421,172.5 L434,172.5 C487.6483,172.5 542.1559,139.1855 574.9007,114.769 " fill="none" style="stroke:#A80036;stroke-width:1.0;stroke-dasharray:3.0,3.0;"/><path d="M576.8015,117.2698 L576.7763,113.3434 L572.9998,112.2682 L581.1528,110.0169 L576.8015,117.2698 " fill="#A80036" style="stroke:#A80036;stroke-width:1.0;"/><ellipse cx="421" cy="172.5" fill="#A80036" rx="3" ry="3" style="stroke:#A80036;stroke-width:1.0;stroke-dasharray:3.0,3.0;"/><path d="M652.5,197.5 L665.5,197.5 C697.0696,197.5 731.4979,194.7577 762.0563,191.3567 " fill="none" style="stroke:#A80036;stroke-width:1.0;stroke-dasharray:3.0,3.0;"/><path d="M762.4073,194.4293 L764.3608,191.0934 L761.7052,188.284 L769.7379,190.4791 L762.4073,194.4293 " fill="#A80036" style="stroke:#A80036;stroke-width:1.0;"/><ellipse cx="652.5" cy="197.5" fill="#A80036" rx="3" ry="3" style="stroke:#A80036;stroke-width:1.0;stroke-dasharray:3.0,3.0;"/><path d="M652.5,217.5 L665.5,217.5 C703.9976,217.5 746.7217,221.7879 781.5047,226.3929 " fill="none" style="stroke:#A80036;stroke-width:1.0;stroke-dasharray:3.0,3.0;"/><path d="M781.0853,229.493 L783.8298,226.7074 L781.9241,223.2927 L789.2551,227.4414 L781.0853,229.493 " fill="#A80036" style="stroke:#A80036;stroke-width:1.0;"/><ellipse cx="652.5" cy="217.5" fill="#A80036" rx="3" ry="3" style="stroke:#A80036;stroke-width:1.0;stroke-dasharray:3.0,3.0;"/><path d="M652.5,238.5 L665.5,238.5 C691.4315,238.5 695.746,250.6109 721,256.5 C745.4452,262.2005 772.8872,266.5031 796.2757,269.5597 " fill="none" style="stroke:#A80036;stroke-width:1.0;stroke-dasharray:3.0,3.0;"/><path d="M795.8962,272.5366 L798.5084,269.8443 L796.6553,266.5827 L803.7181,270.5085 L795.8962,272.5366 " fill="#A80036" style="stroke:#A80036;stroke-width:1.0;"/><ellipse cx="652.5" cy="238.5" fill="#A80036" rx="3" ry="3" style="stroke:#A80036;stroke-width:1.0;stroke-dasharray:3.0,3.0;"/><path d="M421,192.5 L434,192.5 C469.5463,192.5 508.7735,198.0275 540.7301,203.9853 " fill="none" style="stroke:#A80036;stroke-width:1.0;stroke-dasharray:3.0,3.0;"/><path d="M540.1546,207.0013 L542.992,204.4168 L541.3055,200.9693 L548.27,205.4238 L540.1546,207.0013 " fill="#A80036" style="stroke:#A80036;stroke-width:1.0;"/><ellipse cx="421" cy="192.5" fill="#A80036" rx="3" ry="3" style="stroke:#A80036;stroke-width:1.0;stroke-dasharray:3.0,3.0;"/><path d="M137,242.5 L150,242.5 C166.6058,242.5 169.9568,236.7859 186,232.5 C202.582,228.0701 220.208,223.4586 237.3599,219.0232 " fill="none" style="stroke:#A80036;stroke-width:1.0;stroke-dasharray:3.0,3.0;"/><path d="M238.1155,221.9502 L239.5551,218.4565 L236.6042,216.0963 L244.6772,217.1342 L238.1155,221.9502 " fill="#A80036" style="stroke:#A80036;stroke-width:1.0;"/><ellipse cx="137" cy="242.5" fill="#A80036" rx="3" ry="3" style="stroke:#A80036;stroke-width:1.0;stroke-dasharray:3.0,3.0;"/><path d="M137,262.5 L150,262.5 C199.6685,262.5 256.7182,262.5 294.8231,262.5 " fill="none" style="stroke:#A80036;stroke-width:1.0;stroke-dasharray:3.0,3.0;"/><path d="M294.8231,265.6337 L297.1734,262.5 L294.8231,259.3663 L302.6573,262.5 L294.8231,265.6337 " fill="#A80036" style="stroke:#A80036;stroke-width:1.0;"/><ellipse cx="137" cy="262.5" fill="#A80036" rx="3" ry="3" style="stroke:#A80036;stroke-width:1.0;stroke-dasharray:3.0,3.0;"/><path d="M672,331.5 L685,331.5 C694.2376,331.5 703.7634,331.5 713.3617,331.5 " fill="none" style="stroke:#A80036;stroke-width:1.0;stroke-dasharray:3.0,3.0;"/><path d="M713.3617,334.5836 L715.6744,331.5 L713.3617,328.4164 L721.0707,331.5 L713.3617,334.5836 " fill="#A80036" style="stroke:#A80036;stroke-width:1.0;"/><ellipse cx="672" cy="331.5" fill="#A80036" rx="3" ry="3" style="stroke:#A80036;stroke-width:1.0;stroke-dasharray:3.0,3.0;"/><path d="M479,331.5 L492,331.5 C501.2513,331.5 510.9267,331.5 520.5596,331.5 " fill="none" style="stroke:#A80036;stroke-width:1.0;stroke-dasharray:3.0,3.0;"/><path d="M520.5596,334.5829 L522.8718,331.5 L520.5596,328.4171 L528.2669,331.5 L520.5596,334.5829 " fill="#A80036" style="stroke:#A80036;stroke-width:1.0;"/><ellipse cx="479" cy="331.5" fill="#A80036" rx="3" ry="3" style="stroke:#A80036;stroke-width:1.0;stroke-dasharray:3.0,3.0;"/><path d="M137,283.5 L150,283.5 C166.3903,283.5 169.9588,288.1351 186,291.5 C198.4334,294.1081 211.4529,296.775 224.4189,299.3902 " fill="none" style="stroke:#A80036;stroke-width:1.0;stroke-dasharray:3.0,3.0;"/><path d="M223.8057,302.4394 L226.7058,299.8501 L225.032,296.3409 L232.042,300.9231 L223.8057,302.4394 " fill="#A80036" style="stroke:#A80036;stroke-width:1.0;"/><ellipse cx="137" cy="283.5" fill="#A80036" rx="3" ry="3" style="stroke:#A80036;stroke-width:1.0;stroke-dasharray:3.0,3.0;"/><!--MD5=[2a939ecab1c57d57881807bfdd3606a5]
@startjson
{
   "light":{
     "effect configuration":{
        "solid red light": {
            "color": "red",
            "brightness": 0.05
        },
        "blinking red light": {
            "color": "red",
            "brightness": 0.05,
            "frequency [HZ]": 2
        }
     },
     "state effects": {
       "work effect": [
        "solid red light",
        "blinking red light",
        "fast blinking red light"
       ],
       "rest effect": ["green solid light"],
       "idle effect": ["IP solid light"]
     },
     "general brightness": 1.0
   },
   "duration": {
     "work" : 25,
     "rest" : 5
   },
   "measurements": {
     "default strategy" : "distanceStrategy",
     "strategy configuration": {
       "distanceStrategy" : {
         "distance [cm]" : 150,
         "observation window [seconds]" : 15
       }
     }
   }
}
@endjson

PlantUML version 1.2021.7(Sun May 23 12:40:07 UTC 2021)
(GPL source distribution)
Java Runtime: Java(TM) SE Runtime Environment
JVM: Java HotSpot(TM) 64-Bit Server VM
Default Encoding: UTF-8
Language: en
Country: US
--></g></svg>