<?xml version="1.0" encoding="UTF-8" standalone="no"?><svg xmlns="http://www.w3.org/2000/svg" xmlns:xlink="http://www.w3.org/1999/xlink" contentScriptType="application/ecmascript" contentStyleType="text/css" height="488px" preserveAspectRatio="none" style="width:1317px;height:488px;background:#FFFFFF;" version="1.1" viewBox="0 0 1317 488" width="1317px" zoomAndPan="magnify"><defs><filter height="300%" id="f1dcg69iq7augo" width="300%" x="-1" y="-1"><feGaussianBlur result="blurOut" stdDeviation="2.0"/><feColorMatrix in="blurOut" result="blurOut2" type="matrix" values="0 0 0 0 0 0 0 0 0 0 0 0 0 0 0 0 0 0 .4 0"/><feOffset dx="4.0" dy="4.0" in="blurOut2" result="blurOut3"/><feBlend in="SourceGraphic" in2="blurOut3" mode="normal"/></filter></defs><g><text fill="#000000" font-family="sans-serif" font-size="14" lengthAdjust="spacing" textLength="95" x="419" y="248.1826">BREAKALERT</text><rect fill="#90EE90" filter="url(#f1dcg69iq7augo)" height="36.2969" rx="12.5" ry="12.5" style="stroke:#A80036;stroke-width:1.5;" width="116" x="564" y="225.1875"/><text fill="#000000" font-family="sans-serif" font-size="14" lengthAdjust="spacing" textLength="96" x="574" y="248.1826">configuration</text><rect fill="#ADD8E6" filter="url(#f1dcg69iq7augo)" height="36.2969" rx="12.5" ry="12.5" style="stroke:#A80036;stroke-width:1.5;" width="228" x="730" y="20"/><text fill="#000000" font-family="sans-serif" font-size="14" lengthAdjust="spacing" textLength="208" x="740" y="42.9951">restore default configuration</text><path d="M680,243.3359 L690,243.3359 C705,243.3359 705,38.1484 720,38.1484 L730,38.1484 " fill="none" style="stroke:#A80036;stroke-width:1.0;"/><rect fill="#ADD8E6" filter="url(#f1dcg69iq7augo)" height="36.2969" rx="12.5" ry="12.5" style="stroke:#A80036;stroke-width:1.5;" width="127" x="730" y="140.7422"/><text fill="#000000" font-family="sans-serif" font-size="14" lengthAdjust="spacing" textLength="107" x="740" y="163.7373">measurements</text><rect fill="#FEFECE" filter="url(#f1dcg69iq7augo)" height="52.5938" rx="12.5" ry="12.5" style="stroke:#A80036;stroke-width:1.5;" width="391" x="907" y="76.2969"/><text fill="#000000" font-family="sans-serif" font-size="14" lengthAdjust="spacing" textLength="339" x="917" y="99.292">provide a better measurement sample cleanup</text><text fill="#000000" font-family="sans-serif" font-size="14" lengthAdjust="spacing" textLength="371" x="917" y="115.5889">e.g. wait for 1k samples and delete older than 5min</text><path d="M857,158.8906 L867,158.8906 C882,158.8906 882,102.5938 897,102.5938 L907,102.5938 " fill="none" style="stroke:#A80036;stroke-width:1.0;"/><rect fill="#FEFECE" filter="url(#f1dcg69iq7augo)" height="36.2969" rx="12.5" ry="12.5" style="stroke:#A80036;stroke-width:1.5;" width="136" x="907" y="148.8906"/><text fill="#000000" font-family="sans-serif" font-size="14" lengthAdjust="spacing" textLength="116" x="917" y="171.8857">default strategy</text><path d="M857,158.8906 L867,158.8906 C882,158.8906 882,167.0391 897,167.0391 L907,167.0391 " fill="none" style="stroke:#A80036;stroke-width:1.0;"/><rect fill="#FEFECE" filter="url(#f1dcg69iq7augo)" height="36.2969" rx="12.5" ry="12.5" style="stroke:#A80036;stroke-width:1.5;" width="181" x="907" y="205.1875"/><text fill="#000000" font-family="sans-serif" font-size="14" lengthAdjust="spacing" textLength="161" x="917" y="228.1826">strategy configuration</text><path d="M857,158.8906 L867,158.8906 C882,158.8906 882,223.3359 897,223.3359 L907,223.3359 " fill="none" style="stroke:#A80036;stroke-width:1.0;"/><path d="M680,243.3359 L690,243.3359 C705,243.3359 705,158.8906 720,158.8906 L730,158.8906 " fill="none" style="stroke:#A80036;stroke-width:1.0;"/><rect fill="#ADD8E6" filter="url(#f1dcg69iq7augo)" height="36.2969" rx="12.5" ry="12.5" style="stroke:#A80036;stroke-width:1.5;" width="53" x="730" y="345.9297"/><text fill="#000000" font-family="sans-serif" font-size="14" lengthAdjust="spacing" textLength="33" x="740" y="368.9248">light</text><rect fill="#FEFECE" filter="url(#f1dcg69iq7augo)" height="36.2969" rx="12.5" ry="12.5" style="stroke:#A80036;stroke-width:1.5;" width="165" x="833" y="261.4844"/><text fill="#000000" font-family="sans-serif" font-size="14" lengthAdjust="spacing" textLength="145" x="843" y="284.4795">effect configuration</text><path d="M783,364.0781 L793,364.0781 C808,364.0781 808,279.6328 823,279.6328 L833,279.6328 " fill="none" style="stroke:#A80036;stroke-width:1.0;"/><rect fill="#FEFECE" filter="url(#f1dcg69iq7augo)" height="36.2969" rx="12.5" ry="12.5" style="stroke:#A80036;stroke-width:1.5;" width="118" x="833" y="374.0781"/><text fill="#000000" font-family="sans-serif" font-size="14" lengthAdjust="spacing" textLength="94" x="843" y="397.0732">state effects</text><rect fill="#FEFECE" filter="url(#f1dcg69iq7augo)" height="36.2969" rx="12.5" ry="12.5" style="stroke:#A80036;stroke-width:1.5;" width="104" x="1001" y="317.7813"/><text fill="#000000" font-family="sans-serif" font-size="14" lengthAdjust="spacing" textLength="84" x="1011" y="340.7764">work effect</text><path d="M951,392.2266 L961,392.2266 C976,392.2266 976,335.9297 991,335.9297 L1001,335.9297 " fill="none" style="stroke:#A80036;stroke-width:1.0;"/><rect fill="#FEFECE" filter="url(#f1dcg69iq7augo)" height="36.2969" rx="12.5" ry="12.5" style="stroke:#A80036;stroke-width:1.5;" width="98" x="1001" y="374.0781"/><text fill="#000000" font-family="sans-serif" font-size="14" lengthAdjust="spacing" textLength="78" x="1011" y="397.0732">rest effect</text><path d="M951,392.2266 L961,392.2266 C976,392.2266 976,392.2266 991,392.2266 L1001,392.2266 " fill="none" style="stroke:#A80036;stroke-width:1.0;"/><rect fill="#FEFECE" filter="url(#f1dcg69iq7augo)" height="36.2969" rx="12.5" ry="12.5" style="stroke:#A80036;stroke-width:1.5;" width="95" x="1001" y="430.375"/><text fill="#000000" font-family="sans-serif" font-size="14" lengthAdjust="spacing" textLength="75" x="1011" y="453.3701">idle effect</text><path d="M951,392.2266 L961,392.2266 C976,392.2266 976,448.5234 991,448.5234 L1001,448.5234 " fill="none" style="stroke:#A80036;stroke-width:1.0;"/><path d="M783,364.0781 L793,364.0781 C808,364.0781 808,392.2266 823,392.2266 L833,392.2266 " fill="none" style="stroke:#A80036;stroke-width:1.0;"/><path d="M680,243.3359 L690,243.3359 C705,243.3359 705,364.0781 720,364.0781 L730,364.0781 " fill="none" style="stroke:#A80036;stroke-width:1.0;"/><path d="M514,243.3359 L524,243.3359 C539,243.3359 539,243.3359 554,243.3359 L564,243.3359 " fill="none" style="stroke:#A80036;stroke-width:1.0;"/><rect fill="#90EE90" filter="url(#f1dcg69iq7augo)" height="36.2969" rx="12.5" ry="12.5" style="stroke:#A80036;stroke-width:1.5;" width="72" x="294" y="178.8906"/><text fill="#000000" font-family="sans-serif" font-size="14" lengthAdjust="spacing" textLength="52" x="304" y="201.8857">testing</text><path d="M416,243.3359 L406,243.3359 C391,243.3359 391,197.0391 376,197.0391 L366,197.0391 " fill="none" style="stroke:#A80036;stroke-width:1.0;"/><rect fill="#90EE90" filter="url(#f1dcg69iq7augo)" height="52.5938" rx="12.5" ry="12.5" style="stroke:#A80036;stroke-width:1.5;" width="121" x="245" y="235.1875"/><text fill="#000000" font-family="sans-serif" font-size="14" lengthAdjust="spacing" textLength="101" x="255" y="258.1826">command line</text><text fill="#000000" font-family="sans-serif" font-size="14" lengthAdjust="spacing" textLength="96" x="255" y="274.4795">configuration</text><rect fill="#ADD8E6" filter="url(#f1dcg69iq7augo)" height="36.2969" rx="12.5" ry="12.5" style="stroke:#A80036;stroke-width:1.5;" width="149" x="46" y="215.1875"/><line style="stroke:#A80036;stroke-width:1.0;" x1="46" x2="56" y1="233.3359" y2="233.3359"/><text fill="#000000" font-family="sans-serif" font-size="14" lengthAdjust="spacing" textLength="129" x="56" y="237.6826">production/debug</text><line style="stroke:#A80036;stroke-width:1.0;" x1="185" x2="195" y1="233.3359" y2="233.3359"/><path d="M245,261.4844 L235,261.4844 C220,261.4844 220,233.3359 205,233.3359 L195,233.3359 " fill="none" style="stroke:#A80036;stroke-width:1.0;"/><rect fill="#ADD8E6" filter="url(#f1dcg69iq7augo)" height="36.2969" rx="12.5" ry="12.5" style="stroke:#A80036;stroke-width:1.5;" width="185" x="10" y="271.4844"/><text fill="#000000" font-family="sans-serif" font-size="14" lengthAdjust="spacing" textLength="165" x="20" y="294.4795">measurement strategy</text><path d="M245,261.4844 L235,261.4844 C220,261.4844 220,289.6328 205,289.6328 L195,289.6328 " fill="none" style="stroke:#A80036;stroke-width:1.0;"/><path d="M416,243.3359 L406,243.3359 C391,243.3359 391,261.4844 376,261.4844 L366,261.4844 " fill="none" style="stroke:#A80036;stroke-width:1.0;"/><!--MD5=[e686fb359c8dd6ba72023e179602f811]
@startmindmap
<style>
mindmapDiagram {
  ' node {
  '   BackgroundColor lightGreen
  ' }
  ' boxless {
  '   FontColor darkgreen
  ' }
    :depth(1) {
      BackGroundColor lightgreen
    }
    :depth(2) {
      BackGroundColor lightblue
    }
}
</style>

*_ BREAKALERT

++ configuration

+++ restore default configuration

+++ measurements
++++ provide a better measurement sample cleanup\ne.g. wait for 1k samples and delete older than 5min
++++ default strategy
++++ strategy configuration



+++   light
++++  effect configuration

++++  state effects 
+++++ work effect
+++++ rest effect
+++++ idle effect


- - testing

- - command line\nconfiguration
- - - - -production/debug- -
- - - measurement strategy

@endmindmap

@startmindmap
<style>
mindmapDiagram {
    :depth(1) {
      BackGroundColor lightgreen
    }
    :depth(2) {
      BackGroundColor lightblue
    }
}
</style>

*_ BREAKALERT

++ configuration

+++ restore default configuration

+++ measurements
++++ provide a better measurement sample cleanup\ne.g. wait for 1k samples and delete older than 5min
++++ default strategy
++++ strategy configuration



+++   light
++++  effect configuration

++++  state effects 
+++++ work effect
+++++ rest effect
+++++ idle effect


- - testing

- - command line\nconfiguration
- - - - -production/debug- -
- - - measurement strategy

@endmindmap

PlantUML version 1.2021.7(Sun May 23 12:40:07 UTC 2021)
(GPL source distribution)
Java Runtime: Java(TM) SE Runtime Environment
JVM: Java HotSpot(TM) 64-Bit Server VM
Default Encoding: UTF-8
Language: en
Country: US
--></g></svg>