<?xml version="1.0" encoding="UTF-8" standalone="no"?><svg xmlns="http://www.w3.org/2000/svg" xmlns:xlink="http://www.w3.org/1999/xlink" contentScriptType="application/ecmascript" contentStyleType="text/css" height="910px" preserveAspectRatio="none" style="width:1415px;height:910px;background:#FFFFFF;" version="1.1" viewBox="0 0 1415 910" width="1415px" zoomAndPan="magnify"><defs><filter height="300%" id="f1w1vd1x6gp9qz" width="300%" x="-1" y="-1"><feGaussianBlur result="blurOut" stdDeviation="2.0"/><feColorMatrix in="blurOut" result="blurOut2" type="matrix" values="0 0 0 0 0 0 0 0 0 0 0 0 0 0 0 0 0 0 .4 0"/><feOffset dx="4.0" dy="4.0" in="blurOut2" result="blurOut3"/><feBlend in="SourceGraphic" in2="blurOut3" mode="normal"/></filter></defs><g><text fill="#000000" font-family="sans-serif" font-size="14" lengthAdjust="spacing" textLength="76" x="419" y="459.2959">breakalert</text><rect fill="#90EE90" filter="url(#f1w1vd1x6gp9qz)" height="36.2969" rx="12.5" ry="12.5" style="stroke:#A80036;stroke-width:1.5;" width="116" x="545" y="436.3008"/><text fill="#000000" font-family="sans-serif" font-size="14" lengthAdjust="spacing" textLength="96" x="555" y="459.2959">configuration</text><rect fill="#ADD8E6" filter="url(#f1w1vd1x6gp9qz)" height="36.2969" rx="12.5" ry="12.5" style="stroke:#A80036;stroke-width:1.5;" width="228" x="711" y="20"/><text fill="#000000" font-family="sans-serif" font-size="14" lengthAdjust="spacing" textLength="208" x="721" y="42.9951">restore default configuration</text><path d="M661,454.4492 L671,454.4492 C686,454.4492 686,38.1484 701,38.1484 L711,38.1484 " fill="none" style="stroke:#A80036;stroke-width:1.0;"/><rect fill="#ADD8E6" filter="url(#f1w1vd1x6gp9qz)" height="36.2969" rx="12.5" ry="12.5" style="stroke:#A80036;stroke-width:1.5;" width="127" x="711" y="154.8164"/><text fill="#000000" font-family="sans-serif" font-size="14" lengthAdjust="spacing" textLength="107" x="721" y="177.8115">measurements</text><rect fill="#FEFECE" filter="url(#f1w1vd1x6gp9qz)" height="52.5938" rx="12.5" ry="12.5" style="stroke:#A80036;stroke-width:1.5;" width="391" x="888" y="76.2969"/><text fill="#000000" font-family="sans-serif" font-size="14" lengthAdjust="spacing" textLength="339" x="898" y="99.292">provide a better measurement sample cleanup</text><text fill="#000000" font-family="sans-serif" font-size="14" lengthAdjust="spacing" textLength="371" x="898" y="115.5889">e.g. wait for 1k samples and delete older than 5min</text><path d="M838,172.9648 L848,172.9648 C863,172.9648 863,102.5938 878,102.5938 L888,102.5938 " fill="none" style="stroke:#A80036;stroke-width:1.0;"/><rect fill="#FEFECE" filter="url(#f1w1vd1x6gp9qz)" height="36.2969" rx="12.5" ry="12.5" style="stroke:#A80036;stroke-width:1.5;" width="136" x="888" y="148.8906"/><text fill="#000000" font-family="sans-serif" font-size="14" lengthAdjust="spacing" textLength="116" x="898" y="171.8857">default strategy</text><path d="M838,172.9648 L848,172.9648 C863,172.9648 863,167.0391 878,167.0391 L888,167.0391 " fill="none" style="stroke:#A80036;stroke-width:1.0;"/><rect fill="#FEFECE" filter="url(#f1w1vd1x6gp9qz)" height="36.2969" rx="12.5" ry="12.5" style="stroke:#A80036;stroke-width:1.5;" width="181" x="888" y="205.1875"/><text fill="#000000" font-family="sans-serif" font-size="14" lengthAdjust="spacing" textLength="161" x="898" y="228.1826">strategy configuration</text><rect fill="#FEFECE" filter="url(#f1w1vd1x6gp9qz)" height="36.2969" rx="12.5" ry="12.5" style="stroke:#A80036;stroke-width:1.5;" width="146" x="1119" y="177.0391"/><text fill="#000000" font-family="sans-serif" font-size="14" lengthAdjust="spacing" textLength="126" x="1129" y="200.0342">distance strategy</text><rect fill="#FEFECE" filter="url(#f1w1vd1x6gp9qz)" height="36.2969" rx="12.5" ry="12.5" style="stroke:#A80036;stroke-width:1.5;" width="81" x="1315" y="177.0391"/><text fill="#000000" font-family="sans-serif" font-size="14" lengthAdjust="spacing" textLength="61" x="1325" y="200.0342">distance</text><path d="M1265,195.1875 L1275,195.1875 C1290,195.1875 1290,195.1875 1305,195.1875 L1315,195.1875 " fill="none" style="stroke:#A80036;stroke-width:1.0;"/><path d="M1069,223.3359 L1079,223.3359 C1094,223.3359 1094,195.1875 1109,195.1875 L1119,195.1875 " fill="none" style="stroke:#A80036;stroke-width:1.0;"/><rect fill="#FEFECE" filter="url(#f1w1vd1x6gp9qz)" height="36.2969" rx="12.5" ry="12.5" style="stroke:#A80036;stroke-width:1.5;" width="100" x="1119" y="233.3359"/><text fill="#000000" font-family="sans-serif" font-size="14" lengthAdjust="spacing" textLength="80" x="1129" y="256.3311">... strategy</text><path d="M1069,223.3359 L1079,223.3359 C1094,223.3359 1094,251.4844 1109,251.4844 L1119,251.4844 " fill="none" style="stroke:#A80036;stroke-width:1.0;"/><path d="M838,172.9648 L848,172.9648 C863,172.9648 863,223.3359 878,223.3359 L888,223.3359 " fill="none" style="stroke:#A80036;stroke-width:1.0;"/><path d="M661,454.4492 L671,454.4492 C686,454.4492 686,172.9648 701,172.9648 L711,172.9648 " fill="none" style="stroke:#A80036;stroke-width:1.0;"/><rect fill="#ADD8E6" filter="url(#f1w1vd1x6gp9qz)" height="36.2969" rx="12.5" ry="12.5" style="stroke:#A80036;stroke-width:1.5;" width="80" x="711" y="317.7813"/><text fill="#000000" font-family="sans-serif" font-size="14" lengthAdjust="spacing" textLength="60" x="721" y="340.7764">duration</text><rect fill="#FEFECE" filter="url(#f1w1vd1x6gp9qz)" height="36.2969" rx="12.5" ry="12.5" style="stroke:#A80036;stroke-width:1.5;" width="113" x="841" y="289.6328"/><text fill="#000000" font-family="sans-serif" font-size="14" lengthAdjust="spacing" textLength="93" x="851" y="312.6279">rest duration</text><path d="M791,335.9297 L801,335.9297 C816,335.9297 816,307.7813 831,307.7813 L841,307.7813 " fill="none" style="stroke:#A80036;stroke-width:1.0;"/><rect fill="#FEFECE" filter="url(#f1w1vd1x6gp9qz)" height="36.2969" rx="12.5" ry="12.5" style="stroke:#A80036;stroke-width:1.5;" width="119" x="841" y="345.9297"/><text fill="#000000" font-family="sans-serif" font-size="14" lengthAdjust="spacing" textLength="99" x="851" y="368.9248">work duration</text><path d="M791,335.9297 L801,335.9297 C816,335.9297 816,364.0781 831,364.0781 L841,364.0781 " fill="none" style="stroke:#A80036;stroke-width:1.0;"/><path d="M661,454.4492 L671,454.4492 C686,454.4492 686,335.9297 701,335.9297 L711,335.9297 " fill="none" style="stroke:#A80036;stroke-width:1.0;"/><rect fill="#ADD8E6" filter="url(#f1w1vd1x6gp9qz)" height="36.2969" rx="12.5" ry="12.5" style="stroke:#A80036;stroke-width:1.5;" width="53" x="711" y="627.4141"/><text fill="#000000" font-family="sans-serif" font-size="14" lengthAdjust="spacing" textLength="33" x="721" y="650.4092">light</text><rect fill="#FEFECE" filter="url(#f1w1vd1x6gp9qz)" height="36.2969" rx="12.5" ry="12.5" style="stroke:#A80036;stroke-width:1.5;" width="165" x="814" y="514.8203"/><text fill="#000000" font-family="sans-serif" font-size="14" lengthAdjust="spacing" textLength="145" x="824" y="537.8154">effect configuration</text><rect fill="#FEFECE" filter="url(#f1w1vd1x6gp9qz)" height="36.2969" rx="12.5" ry="12.5" style="stroke:#A80036;stroke-width:1.5;" width="90" x="1029" y="430.375"/><text fill="#000000" font-family="sans-serif" font-size="14" lengthAdjust="spacing" textLength="70" x="1039" y="453.3701">solid light</text><rect fill="#FEFECE" filter="url(#f1w1vd1x6gp9qz)" height="36.2969" rx="12.5" ry="12.5" style="stroke:#A80036;stroke-width:1.5;" width="56" x="1169" y="402.2266"/><text fill="#000000" font-family="sans-serif" font-size="14" lengthAdjust="spacing" textLength="36" x="1179" y="425.2217">color</text><path d="M1119,448.5234 L1129,448.5234 C1144,448.5234 1144,420.375 1159,420.375 L1169,420.375 " fill="none" style="stroke:#A80036;stroke-width:1.0;"/><rect fill="#FEFECE" filter="url(#f1w1vd1x6gp9qz)" height="36.2969" rx="12.5" ry="12.5" style="stroke:#A80036;stroke-width:1.5;" width="97" x="1169" y="458.5234"/><text fill="#000000" font-family="sans-serif" font-size="14" lengthAdjust="spacing" textLength="77" x="1179" y="481.5186">brightness</text><path d="M1119,448.5234 L1129,448.5234 C1144,448.5234 1144,476.6719 1159,476.6719 L1169,476.6719 " fill="none" style="stroke:#A80036;stroke-width:1.0;"/><path d="M979,532.9688 L989,532.9688 C1004,532.9688 1004,448.5234 1019,448.5234 L1029,448.5234 " fill="none" style="stroke:#A80036;stroke-width:1.0;"/><rect fill="#FEFECE" filter="url(#f1w1vd1x6gp9qz)" height="36.2969" rx="12.5" ry="12.5" style="stroke:#A80036;stroke-width:1.5;" width="115" x="1029" y="571.1172"/><text fill="#000000" font-family="sans-serif" font-size="14" lengthAdjust="spacing" textLength="95" x="1039" y="594.1123">blinking light</text><rect fill="#FEFECE" filter="url(#f1w1vd1x6gp9qz)" height="36.2969" rx="12.5" ry="12.5" style="stroke:#A80036;stroke-width:1.5;" width="56" x="1194" y="514.8203"/><text fill="#000000" font-family="sans-serif" font-size="14" lengthAdjust="spacing" textLength="36" x="1204" y="537.8154">color</text><path d="M1144,589.2656 L1154,589.2656 C1169,589.2656 1169,532.9688 1184,532.9688 L1194,532.9688 " fill="none" style="stroke:#A80036;stroke-width:1.0;"/><rect fill="#FEFECE" filter="url(#f1w1vd1x6gp9qz)" height="36.2969" rx="12.5" ry="12.5" style="stroke:#A80036;stroke-width:1.5;" width="97" x="1194" y="571.1172"/><text fill="#000000" font-family="sans-serif" font-size="14" lengthAdjust="spacing" textLength="77" x="1204" y="594.1123">brightness</text><path d="M1144,589.2656 L1154,589.2656 C1169,589.2656 1169,589.2656 1184,589.2656 L1194,589.2656 " fill="none" style="stroke:#A80036;stroke-width:1.0;"/><rect fill="#FEFECE" filter="url(#f1w1vd1x6gp9qz)" height="36.2969" rx="12.5" ry="12.5" style="stroke:#A80036;stroke-width:1.5;" width="132" x="1194" y="627.4141"/><text fill="#000000" font-family="sans-serif" font-size="14" lengthAdjust="spacing" textLength="112" x="1204" y="650.4092">blink frequency</text><path d="M1144,589.2656 L1154,589.2656 C1169,589.2656 1169,645.5625 1184,645.5625 L1194,645.5625 " fill="none" style="stroke:#A80036;stroke-width:1.0;"/><path d="M979,532.9688 L989,532.9688 C1004,532.9688 1004,589.2656 1019,589.2656 L1029,589.2656 " fill="none" style="stroke:#A80036;stroke-width:1.0;"/><path d="M764,645.5625 L774,645.5625 C789,645.5625 789,532.9688 804,532.9688 L814,532.9688 " fill="none" style="stroke:#A80036;stroke-width:1.0;"/><rect fill="#FEFECE" filter="url(#f1w1vd1x6gp9qz)" height="36.2969" rx="12.5" ry="12.5" style="stroke:#A80036;stroke-width:1.5;" width="118" x="814" y="740.0078"/><text fill="#000000" font-family="sans-serif" font-size="14" lengthAdjust="spacing" textLength="94" x="824" y="763.0029">state effects</text><rect fill="#FEFECE" filter="url(#f1w1vd1x6gp9qz)" height="36.2969" rx="12.5" ry="12.5" style="stroke:#A80036;stroke-width:1.5;" width="104" x="982" y="683.7109"/><text fill="#000000" font-family="sans-serif" font-size="14" lengthAdjust="spacing" textLength="84" x="992" y="706.7061">work effect</text><path d="M932,758.1563 L942,758.1563 C957,758.1563 957,701.8594 972,701.8594 L982,701.8594 " fill="none" style="stroke:#A80036;stroke-width:1.0;"/><rect fill="#FEFECE" filter="url(#f1w1vd1x6gp9qz)" height="36.2969" rx="12.5" ry="12.5" style="stroke:#A80036;stroke-width:1.5;" width="98" x="982" y="740.0078"/><text fill="#000000" font-family="sans-serif" font-size="14" lengthAdjust="spacing" textLength="78" x="992" y="763.0029">rest effect</text><path d="M932,758.1563 L942,758.1563 C957,758.1563 957,758.1563 972,758.1563 L982,758.1563 " fill="none" style="stroke:#A80036;stroke-width:1.0;"/><rect fill="#FEFECE" filter="url(#f1w1vd1x6gp9qz)" height="36.2969" rx="12.5" ry="12.5" style="stroke:#A80036;stroke-width:1.5;" width="95" x="982" y="796.3047"/><text fill="#000000" font-family="sans-serif" font-size="14" lengthAdjust="spacing" textLength="75" x="992" y="819.2998">idle effect</text><path d="M932,758.1563 L942,758.1563 C957,758.1563 957,814.4531 972,814.4531 L982,814.4531 " fill="none" style="stroke:#A80036;stroke-width:1.0;"/><path d="M764,645.5625 L774,645.5625 C789,645.5625 789,758.1563 804,758.1563 L814,758.1563 " fill="none" style="stroke:#A80036;stroke-width:1.0;"/><rect fill="#FEFECE" filter="url(#f1w1vd1x6gp9qz)" height="36.2969" rx="12.5" ry="12.5" style="stroke:#A80036;stroke-width:1.5;" width="155" x="814" y="852.6016"/><text fill="#000000" font-family="sans-serif" font-size="14" lengthAdjust="spacing" textLength="135" x="824" y="875.5967">general brightness</text><path d="M764,645.5625 L774,645.5625 C789,645.5625 789,870.75 804,870.75 L814,870.75 " fill="none" style="stroke:#A80036;stroke-width:1.0;"/><path d="M661,454.4492 L671,454.4492 C686,454.4492 686,645.5625 701,645.5625 L711,645.5625 " fill="none" style="stroke:#A80036;stroke-width:1.0;"/><path d="M495,454.4492 L505,454.4492 C520,454.4492 520,454.4492 535,454.4492 L545,454.4492 " fill="none" style="stroke:#A80036;stroke-width:1.0;"/><rect fill="#90EE90" filter="url(#f1w1vd1x6gp9qz)" height="36.2969" rx="12.5" ry="12.5" style="stroke:#A80036;stroke-width:1.5;" width="72" x="294" y="390.0039"/><text fill="#000000" font-family="sans-serif" font-size="14" lengthAdjust="spacing" textLength="52" x="304" y="412.999">testing</text><path d="M416,454.4492 L406,454.4492 C391,454.4492 391,408.1523 376,408.1523 L366,408.1523 " fill="none" style="stroke:#A80036;stroke-width:1.0;"/><rect fill="#90EE90" filter="url(#f1w1vd1x6gp9qz)" height="52.5938" rx="12.5" ry="12.5" style="stroke:#A80036;stroke-width:1.5;" width="121" x="245" y="446.3008"/><text fill="#000000" font-family="sans-serif" font-size="14" lengthAdjust="spacing" textLength="101" x="255" y="469.2959">command line</text><text fill="#000000" font-family="sans-serif" font-size="14" lengthAdjust="spacing" textLength="96" x="255" y="485.5928">configuration</text><rect fill="#ADD8E6" filter="url(#f1w1vd1x6gp9qz)" height="36.2969" rx="12.5" ry="12.5" style="stroke:#A80036;stroke-width:1.5;" width="149" x="46" y="426.3008"/><text fill="#000000" font-family="sans-serif" font-size="14" lengthAdjust="spacing" textLength="129" x="56" y="449.2959">production/debug</text><path d="M245,472.5977 L235,472.5977 C220,472.5977 220,444.4492 205,444.4492 L195,444.4492 " fill="none" style="stroke:#A80036;stroke-width:1.0;"/><rect fill="#ADD8E6" filter="url(#f1w1vd1x6gp9qz)" height="36.2969" rx="12.5" ry="12.5" style="stroke:#A80036;stroke-width:1.5;" width="185" x="10" y="482.5977"/><text fill="#000000" font-family="sans-serif" font-size="14" lengthAdjust="spacing" textLength="165" x="20" y="505.5928">measurement strategy</text><path d="M245,472.5977 L235,472.5977 C220,472.5977 220,500.7461 205,500.7461 L195,500.7461 " fill="none" style="stroke:#A80036;stroke-width:1.0;"/><path d="M416,454.4492 L406,454.4492 C391,454.4492 391,472.5977 376,472.5977 L366,472.5977 " fill="none" style="stroke:#A80036;stroke-width:1.0;"/><!--MD5=[e0bf99ed1fccfeac399e6568539fb28a]
@startmindmap
<style>
mindmapDiagram {
  ' node {
  '   BackgroundColor lightGreen
  ' }
  ' boxless {
  '   FontColor darkgreen
  ' }
    :depth(1) {
      BackGroundColor lightgreen
    }
    :depth(2) {
      BackGroundColor lightblue
    }
}
</style>

*_ breakalert

++ configuration

+++ restore default configuration

+++ measurements
++++ provide a better measurement sample cleanup\ne.g. wait for 1k samples and delete older than 5min
++++ default strategy
++++ strategy configuration
+++++ distance strategy
++++++ distance
+++++ ... strategy

+++  duration
++++ rest duration
++++ work duration

+++   light
++++  effect configuration
+++++ solid light
++++++ color
++++++ brightness
+++++ blinking light
++++++ color
++++++ brightness
++++++ blink frequency
++++  state effects 
+++++ work effect
+++++ rest effect
+++++ idle effect
++++  general brightness

- - testing

- - command line\nconfiguration
- - - production/debug
- - - measurement strategy

@endmindmap

@startmindmap
<style>
mindmapDiagram {
    :depth(1) {
      BackGroundColor lightgreen
    }
    :depth(2) {
      BackGroundColor lightblue
    }
}
</style>

*_ breakalert

++ configuration

+++ restore default configuration

+++ measurements
++++ provide a better measurement sample cleanup\ne.g. wait for 1k samples and delete older than 5min
++++ default strategy
++++ strategy configuration
+++++ distance strategy
++++++ distance
+++++ ... strategy

+++  duration
++++ rest duration
++++ work duration

+++   light
++++  effect configuration
+++++ solid light
++++++ color
++++++ brightness
+++++ blinking light
++++++ color
++++++ brightness
++++++ blink frequency
++++  state effects 
+++++ work effect
+++++ rest effect
+++++ idle effect
++++  general brightness

- - testing

- - command line\nconfiguration
- - - production/debug
- - - measurement strategy

@endmindmap

PlantUML version 1.2021.7(Sun May 23 12:40:07 UTC 2021)
(GPL source distribution)
Java Runtime: Java(TM) SE Runtime Environment
JVM: Java HotSpot(TM) 64-Bit Server VM
Default Encoding: UTF-8
Language: en
Country: US
--></g></svg>